<?xml version="1.0" encoding="UTF-8"?>
<!DOCTYPE svg PUBLIC "-//W3C//DTD SVG 1.1//EN" "http://www.w3.org/Graphics/SVG/1.1/DTD/svg11.dtd">
<svg xmlns="http://www.w3.org/2000/svg" version="1.1" width="260px" height="295px" style="shape-rendering:geometricPrecision; text-rendering:geometricPrecision; image-rendering:optimizeQuality; fill-rule:evenodd; clip-rule:evenodd" xmlns:xlink="http://www.w3.org/1999/xlink">
<g><path style="opacity:0.998" fill="#d59c20" d="M 87.5,6.5 C 107.868,7.78384 116.368,18.7838 113,39.5C 112.751,40.624 112.251,41.624 111.5,42.5C 107.5,27.8329 99.4999,15.8329 87.5,6.5 Z"/></g>
<g><path style="opacity:0.997" fill="#d59b1e" d="M 168.5,4.5 C 170.028,4.51731 170.528,5.18398 170,6.5C 158.39,16.0593 150.556,28.0593 146.5,42.5C 141.39,29.2457 144.39,18.4124 155.5,10C 159.76,7.70291 164.093,5.86958 168.5,4.5 Z"/></g>
<g><path style="opacity:0.999" fill="#d59b1e" d="M 73.5,20.5 C 79.4556,19.8752 84.789,21.3752 89.5,25C 94.4434,29.1048 98.4434,33.9381 101.5,39.5C 101.167,39.8333 100.833,40.1667 100.5,40.5C 88.2982,32.2058 74.9648,28.2058 60.5,28.5C 64.3924,25.0568 68.7258,22.3902 73.5,20.5 Z"/></g>
<g><path style="opacity:0.999" fill="#d59c21" d="M 176.5,20.5 C 185.021,20.2607 192.355,23.0941 198.5,29C 192.487,28.1648 186.487,28.4982 180.5,30C 172.129,32.8644 164.129,36.1977 156.5,40C 161.101,31.2306 167.768,24.7306 176.5,20.5 Z"/></g>
<g><path style="opacity:0.977" fill="#d08d23" d="M 167.5,83.5 C 166.766,82.2921 166.433,80.9587 166.5,79.5C 166.657,78.1266 166.49,76.7932 166,75.5C 163.699,76.8672 161.199,77.5339 158.5,77.5C 157.428,73.2445 155.261,69.5778 152,66.5C 150.587,68.4136 148.753,69.7469 146.5,70.5C 144.6,68.3805 142.934,66.0472 141.5,63.5C 138.462,68.705 134.296,72.705 129,75.5C 123.704,72.705 119.538,68.705 116.5,63.5C 114.763,71.3492 111.263,72.3492 106,66.5C 103.074,69.3552 100.907,72.6885 99.5,76.5C 97.0407,77.643 94.7073,77.3096 92.5,75.5C 91.7025,75.9569 91.3691,76.6236 91.5,77.5C 91.6747,79.6208 91.3414,81.6208 90.5,83.5C 84.5047,81.974 78.5047,81.3073 72.5,81.5C 63.6889,84.4686 60.0222,90.4686 61.5,99.5C 42.122,106.266 25.2886,116.932 11,131.5C 8.06315,135.721 4.89648,139.721 1.5,143.5C 5.20028,112.601 21.8669,91.7678 51.5,81C 69.9302,76.5278 87.2636,69.5278 103.5,60C 117.536,48.7639 126.036,34.2639 129,16.5C 133.532,41.6978 147.699,59.1978 171.5,69C 182.954,73.5958 194.62,77.5958 206.5,81C 235.092,91.5957 252.092,111.929 257.5,142C 257,142.5 256.5,143 256,143.5C 246.301,128.466 233.468,116.966 217.5,109C 210.681,106.09 204.015,102.923 197.5,99.5C 198.167,98.1667 198.833,96.8333 199.5,95.5C 197.853,88.5137 193.687,83.8471 187,81.5C 180.51,81.352 174.01,82.0187 167.5,83.5 Z"/></g>
<g><path style="opacity:0.999" fill="#d49a19" d="M 67.5,31.5 C 74.3309,32.7218 80.6643,35.2218 86.5,39C 92.3581,41.2876 98.3581,42.9543 104.5,44C 101.36,45.7157 98.0266,47.049 94.5,48C 81.808,47.9899 69.1414,47.6566 56.5,47C 50.3521,48.3819 44.5188,50.5485 39,53.5C 38.3333,52.5 38.3333,51.5 39,50.5C 46.4424,40.7212 55.9424,34.3878 67.5,31.5 Z"/></g>
<g><path style="opacity:0.999" fill="#d49917" d="M 188.5,31.5 C 193.702,32.2891 198.702,33.7891 203.5,36C 209.469,40.9672 215.135,46.3005 220.5,52C 220,52.5 219.5,53 219,53.5C 213.754,50.7502 208.254,48.5835 202.5,47C 192.433,46.3472 182.433,46.8472 172.5,48.5C 165.671,48.943 159.338,47.443 153.5,44C 158.855,42.8516 164.189,41.5182 169.5,40C 175.697,36.5621 182.031,33.7287 188.5,31.5 Z"/></g>
<g><path style="opacity:1" fill="#d39813" d="M 107.5,45.5 C 109.646,45.6964 109.812,46.6964 108,48.5C 102.332,55.246 95.499,60.4127 87.5,64C 74.4508,67.8776 61.2841,71.3776 48,74.5C 36.7708,78.0319 26.2708,83.0319 16.5,89.5C 17.882,70.6021 27.882,58.7687 46.5,54C 61.1667,53.6667 75.8333,53.3333 90.5,53C 97.2262,52.6316 102.893,50.1316 107.5,45.5 Z"/></g>
<g><path style="opacity:1" fill="#d39811" d="M 148.5,46.5 C 148.56,45.9569 148.893,45.6236 149.5,45.5C 154.77,49.6484 160.77,52.1484 167.5,53C 182.167,53.3333 196.833,53.6667 211.5,54C 224.587,56.7576 233.754,64.2576 239,76.5C 240.995,80.7763 241.828,85.1096 241.5,89.5C 234.821,85.1588 227.821,81.3254 220.5,78C 205.039,72.9081 189.372,68.5748 173.5,65C 163.551,60.8659 155.217,54.6992 148.5,46.5 Z"/></g>
<g><path style="opacity:0.956" fill="#d19500" d="M 109.5,74.5 C 117.625,72.8154 124.125,75.1488 129,81.5C 134.317,74.9117 141.15,72.7451 149.5,75C 155.192,77.2059 158.359,81.3725 159,87.5C 159.5,102.496 159.667,117.496 159.5,132.5C 153.5,132.5 147.5,132.5 141.5,132.5C 141.981,118.675 141.481,105.008 140,91.5C 139.085,92.3279 138.419,93.3279 138,94.5C 137.5,107.162 137.333,119.829 137.5,132.5C 131.833,132.5 126.167,132.5 120.5,132.5C 120.667,119.496 120.5,106.496 120,93.5C 119.395,91.5188 118.395,91.1854 117,92.5C 116.5,105.829 116.333,119.163 116.5,132.5C 110.5,132.5 104.5,132.5 98.5,132.5C 98.3334,117.496 98.5001,102.496 99,87.5C 100.534,81.477 104.034,77.1436 109.5,74.5 Z"/></g>
<g><path style="opacity:0.412" fill="#ad23a6" d="M 166.5,79.5 C 166.433,80.9587 166.766,82.2921 167.5,83.5C 166.414,83.38 165.747,82.7133 165.5,81.5C 165.543,80.5836 165.876,79.9169 166.5,79.5 Z"/></g>
<g><path style="opacity:0.608" fill="#bb4b90" d="M 91.5,77.5 C 92.1471,78.2739 92.4805,79.2739 92.5,80.5C 92.3601,82.0296 91.6935,83.0296 90.5,83.5C 91.3414,81.6208 91.6747,79.6208 91.5,77.5 Z"/></g>
<g><path style="opacity:0.989" fill="#d3970d" d="M 60.5,105.5 C 61.675,105.281 62.675,105.614 63.5,106.5C 64.1279,108.258 65.1279,109.758 66.5,111C 70.1332,112.37 73.4665,114.204 76.5,116.5C 75.3989,120.538 73.3989,124.038 70.5,127C 55.7007,137.322 42.2007,149.155 30,162.5C 21.4282,173.489 15.2615,185.323 11.5,198C 6.22992,179.267 7.06325,160.767 14,142.5C 17.4234,136.173 21.9234,130.673 27.5,126C 37.8929,118.14 48.8929,111.306 60.5,105.5 Z"/></g>
<g><path style="opacity:0.989" fill="#d3970d" d="M 195.5,105.5 C 207.594,110.712 218.927,117.212 229.5,125C 244.1,137.205 251.1,152.871 250.5,172C 250.294,181.034 248.96,189.868 246.5,198.5C 240.81,178.645 230.144,161.812 214.5,148C 203.871,140.095 193.704,131.595 184,122.5C 183.163,120.649 182.329,118.816 181.5,117C 184.822,114.442 188.489,112.442 192.5,111C 194.16,109.512 195.16,107.679 195.5,105.5 Z"/></g>
<g><path style="opacity:0.992" fill="#d39812" d="M 40.5,201.5 C 39.3503,206.316 39.1837,211.316 40,216.5C 41.3591,212.595 42.1924,208.595 42.5,204.5C 47.709,180.649 60.3757,161.983 80.5,148.5C 81.086,148.709 81.586,149.043 82,149.5C 82.6667,155.167 82.6667,160.833 82,166.5C 58.5907,191.012 47.0907,220.345 47.5,254.5C 31.5099,233.379 25.3432,209.712 29,183.5C 31.0017,175.831 34.335,168.831 39,162.5C 49.2407,152.255 60.074,142.755 71.5,134C 72.4491,133.383 73.2825,133.549 74,134.5C 75.2426,137.883 76.2426,141.216 77,144.5C 62.2029,155.958 51.2029,170.292 44,187.5C 42.5153,192.105 41.3487,196.772 40.5,201.5 Z"/></g>
<g><path style="opacity:0.988" fill="#d19500" d="M 108.5,135.5 C 122.833,135.5 137.167,135.5 151.5,135.5C 151.5,138.5 151.5,141.5 151.5,144.5C 137.167,144.5 122.833,144.5 108.5,144.5C 108.5,141.5 108.5,138.5 108.5,135.5 Z"/></g>
<g><path style="opacity:0.992" fill="#d39813" d="M 216.5,208.5 C 217.805,219.004 218.472,219.004 218.5,208.5C 217.027,191.228 210.86,175.895 200,162.5C 193.626,155.958 187.126,149.624 180.5,143.5C 181.803,139.882 183.47,136.549 185.5,133.5C 197.739,142.567 209.239,152.567 220,163.5C 231.268,181.657 233.601,200.991 227,221.5C 223.481,233.6 217.981,244.6 210.5,254.5C 211.202,220.749 200.035,191.749 177,167.5C 176.866,162.36 176.699,157.36 176.5,152.5C 176.289,148.547 177.623,147.714 180.5,150C 200.054,164.748 212.054,184.248 216.5,208.5 Z"/></g>
<g><path style="opacity:0.908" fill="#d19500" d="M 103.5,147.5 C 106.5,147.5 109.5,147.5 112.5,147.5C 112.665,150.85 112.498,154.183 112,157.5C 109.875,156.149 108.708,156.815 108.5,159.5C 111.187,164.18 112.021,169.18 111,174.5C 107.436,181.194 102.102,183.194 95,180.5C 94.1764,177.118 94.343,173.784 95.5,170.5C 96.4776,170.977 97.3109,171.643 98,172.5C 98.8333,171.667 99.6667,170.833 100.5,170C 94.3764,161.37 95.3764,153.87 103.5,147.5 Z"/></g>
<g><path style="opacity:0.93" fill="#d19500" d="M 116.5,147.5 C 124.833,147.5 133.167,147.5 141.5,147.5C 141.5,150.5 141.5,153.5 141.5,156.5C 139.167,156.5 136.833,156.5 134.5,156.5C 134.5,164.5 134.5,172.5 134.5,180.5C 130.833,180.5 127.167,180.5 123.5,180.5C 123.5,172.5 123.5,164.5 123.5,156.5C 121.167,156.5 118.833,156.5 116.5,156.5C 116.5,153.5 116.5,150.5 116.5,147.5 Z"/></g>
<g><path style="opacity:0.973" fill="#d3970e" d="M 147.5,147.5 C 153.509,147.334 159.509,147.501 165.5,148C 167.848,148.346 169.681,149.513 171,151.5C 172.52,155.375 172.854,159.375 172,163.5C 171.167,165 170,166.167 168.5,167C 183.391,180.182 192.891,197.682 197,219.5C 200.581,238.062 198.581,256.062 191,273.5C 189.959,275.585 188.459,277.252 186.5,278.5C 190.099,256.736 186.932,235.736 177,215.5C 171.794,205.582 165.96,196.082 159.5,187C 162.128,185.374 164.461,183.374 166.5,181C 165.062,180.781 163.729,180.281 162.5,179.5C 161.608,176.716 160.442,174.05 159,171.5C 157.717,166.375 158.884,162.042 162.5,158.5C 161.15,157.05 159.484,156.383 157.5,156.5C 157.5,164.5 157.5,172.5 157.5,180.5C 154.167,180.5 150.833,180.5 147.5,180.5C 147.5,169.5 147.5,158.5 147.5,147.5 Z"/></g>
<g><path style="opacity:0.012" fill="#daa72b" d="M 88.5,167.5 C 89.8333,168.167 89.8333,168.167 88.5,167.5 Z"/></g>
<g><path style="opacity:0.98" fill="#d39813" d="M 85.5,170.5 C 88.8567,176.5 93.1901,181.833 98.5,186.5C 84.6075,204.989 75.4408,225.656 71,248.5C 69.9971,258.106 70.4971,267.606 72.5,277C 72.1667,277.5 71.8333,278 71.5,278.5C 65.7926,271.572 62.2926,263.572 61,254.5C 56.4671,222.605 64.6337,194.605 85.5,170.5 Z"/></g>
<g><path style="opacity:1" fill="#d49915" d="M 99.5,194.5 C 102.017,196.347 103.683,198.847 104.5,202C 96.0684,230.733 92.7351,259.899 94.5,289.5C 88.5499,283.276 84.3833,275.943 82,267.5C 78.4333,249.474 80.4333,232.141 88,215.5C 91.8579,208.446 95.6913,201.446 99.5,194.5 Z"/></g>
<g><path style="opacity:0.999" fill="#d49a1a" d="M 157.5,194.5 C 169.914,210.849 176.914,229.349 178.5,250C 178.766,265.146 173.932,278.313 164,289.5C 164.47,266.662 162.803,243.995 159,221.5C 157.369,214.942 155.536,208.442 153.5,202C 154.457,199.251 155.79,196.751 157.5,194.5 Z"/></g>
<g><path style="opacity:0.188" fill="#eace8a" d="M 40.5,201.5 C 40.3367,203.857 40.5034,206.19 41,208.5C 41.21,206.942 41.71,205.609 42.5,204.5C 42.1924,208.595 41.3591,212.595 40,216.5C 39.1837,211.316 39.3503,206.316 40.5,201.5 Z"/></g>
<g><path style="opacity:0.783" fill="#d2960b" d="M 121.5,207.5 C 126.511,207.334 131.511,207.501 136.5,208C 136.957,208.414 137.291,208.914 137.5,209.5C 136.338,221.102 134.004,232.769 130.5,244.5C 131.935,246.439 131.602,248.106 129.5,249.5C 127.472,238.388 124.972,227.388 122,216.5C 121.502,213.518 121.335,210.518 121.5,207.5 Z"/></g>
<g><path style="opacity:1" fill="#d69d22" d="M 146.5,205.5 C 149.393,210.708 151.226,216.374 152,222.5C 153.379,232.468 153.713,242.468 153,252.5C 152.067,262.381 147.567,270.048 139.5,275.5C 139.167,275 138.833,274.5 138.5,274C 144.96,251.421 147.627,228.588 146.5,205.5 Z"/></g>
<g><path style="opacity:1" fill="#d59c1f" d="M 110.5,205.5 C 111.586,205.62 112.253,206.287 112.5,207.5C 110.631,230.09 112.965,252.257 119.5,274C 119.167,274.5 118.833,275 118.5,275.5C 110.116,269.737 105.616,261.737 105,251.5C 103.792,235.788 105.626,220.455 110.5,205.5 Z"/></g>
<g><path style="opacity:0.247" fill="#f0dcac" d="M 216.5,208.5 C 217.167,208.5 217.833,208.5 218.5,208.5C 218.472,219.004 217.805,219.004 216.5,208.5 Z"/></g>
<g><path style="opacity:0.004" fill="#e3bd62" d="M 123.5,243.5 C 124.525,243.897 124.692,244.563 124,245.5C 123.536,244.906 123.369,244.239 123.5,243.5 Z"/></g>
<g><path style="opacity:0.004" fill="#daa92d" d="M 124.5,247.5 C 125.833,248.167 125.833,248.167 124.5,247.5 Z"/></g>
</svg>
